<svg width="26" height="25" viewBox="0 0 26 25" fill="none" xmlns="http://www.w3.org/2000/svg">
<path d="M24.3275 8.91228H17.3119C16.7722 8.98424 16.2685 8.62446 16.1606 8.0848L13.8581 1.28506C13.6422 0.349642 12.347 0.349642 12.1311 1.28506L9.82858 8.0848C9.72064 8.62446 9.21696 8.94826 8.6773 8.91228H1.66169C0.798227 8.80435 0.366497 10.0636 1.158 10.5672L6.84244 14.9565C7.27417 15.2443 7.45406 15.784 7.2382 16.2877L5.18748 22.8715C4.82771 23.735 5.83507 24.4905 6.55462 23.9149L12.347 19.9574C12.7428 19.6336 13.3184 19.6336 13.7141 19.9574L19.5065 23.8789C20.2261 24.4905 21.2694 23.699 20.8737 22.8356L18.8229 16.2517C18.6071 15.784 18.787 15.2083 19.2187 14.9205L24.9031 10.5672C25.6946 10.0636 25.2629 8.80435 24.3275 8.91228Z" fill="#E10A17"/>
</svg>
