<svg width="1661" height="54" viewBox="0 0 1661 54" fill="none" xmlns="http://www.w3.org/2000/svg">
<path fill-rule="evenodd" clip-rule="evenodd" d="M0.67041 9.8324V53.0166H1660.61L1660.62 15.8008L1630.36 17.9495L1603.12 16.0396L1546.93 20.5756L1525.31 23.2017L1511.05 28.6926L1497.54 29.2298L1480.79 27.0215L1463.93 33.7061L1452.69 30.6025L1443.18 33.7061L1418.54 31.08L1405.57 35.1385L1389.14 27.0215H1381.36L1358.45 31.08L1341.16 32.5124H1320.41L1294.91 28.6926L1260.97 29.2895L1236.98 26.544L1197.65 26.7827L1206.29 13.6522L1186.84 8.40002L1142.31 6.96759L1041.59 10.7874L1010.47 6.96759L986.695 14.3685L935.146 10.7874L831.507 10.0712L781.363 4.34149L733.813 5.05768L711.334 7.68378L698.798 11.0261L674.807 18.785L623.15 22.2468H573.438L521.997 18.9044L488.711 22.2468L460.181 18.1882L416.521 28.9313L318.827 19.1432L282.515 20.3369L234.1 11.0261L217.241 15.0846L164.936 19.1432L111.333 22.008L100.094 17.9495L0.67041 9.8324Z" fill="#F5F4F4"/>
<path d="M1642.45 17.9527L1660.62 17.2365V11.2689L1642.45 11.5076C1637.69 15.3272 1625.15 16.2821 1620.82 16.2821C1616.5 16.2821 1611.74 13.4174 1610.44 12.94C1609.15 12.4625 1592.71 12.4625 1586.22 12.94C1579.74 13.4174 1577.57 16.5209 1576.71 16.5209C1575.84 16.5209 1563.3 15.5654 1560.71 15.3267C1558.63 15.1357 1552.92 16.3612 1550.33 16.9978C1548.25 20.6264 1542.83 20.2604 1540.38 19.6238C1524.81 17.9527 1521.78 20.3399 1515.73 24.637C1509.67 28.9341 1506.21 28.2179 1505.78 28.2179C1499.55 26.1171 1490.21 24.4779 1486.32 23.9209C1475.07 23.2047 1475.07 31.5601 1464.26 32.2763C1461 32.4922 1455.46 29.4911 1453.01 27.7405C1452.58 29.4116 1441.77 34.9023 1436.15 32.9925C1431.65 31.4646 1422.74 29.0137 1418.85 27.9792C1416.68 31.7988 1409.76 34.1861 1406.3 34.1861C1402.84 34.1861 1395.06 30.1278 1395.06 28.6954C1395.06 27.263 1389 23.4434 1389 24.1596C1389 24.7325 1384.68 25.3532 1382.52 25.5919C1382.52 25.8307 1381.13 26.0216 1375.6 24.8758C1370.41 24.3983 1358.3 30.1278 1354.84 30.1278C1352.07 30.1278 1349.36 29.1728 1348.35 28.6954C1343.85 32.897 1340.13 32.1967 1338.83 31.3214C1338.26 30.7644 1335.46 29.3161 1328.89 27.9792C1320.67 26.3081 1321.97 32.2763 1319.8 31.3214C1317.64 30.3665 1307.69 27.7405 1299.91 26.3081C1292.12 24.8758 1286.5 27.9792 1276.12 28.6954C1265.74 29.4116 1253.63 24.637 1245.85 23.4434C1238.06 22.2498 1222.49 25.5919 1212.97 26.3081C1203.46 27.0243 1199.51 24.4225 1198.65 24.8999C1197.96 25.2819 1192.61 27.6362 1190.31 28.6707C1199.65 32.4903 1232.15 30.7644 1247.14 29.1728C1255.1 32.0376 1275.26 33.2312 1284.34 33.4699C1296.1 29.0774 1312.88 33.5495 1319.8 36.3347C1323.61 31.5601 1332.06 33.8678 1335.81 35.6185C1343.42 38.8652 1346.76 35.5389 1347.48 33.4699C1351.29 36.1437 1354.84 35.5389 1356.13 34.9023C1370.84 30.8439 1376.03 29.1728 1378.62 30.1278C1381.22 31.0827 1383.38 30.8439 1384.68 30.8439C1385.72 30.8439 1387.99 29.7299 1389 29.1728C1389.72 29.0933 1391.34 29.3161 1392.03 30.8439C1392.72 32.3718 1398.37 36.2551 1401.11 38.0057C1408.03 41.2524 1415.82 35.6981 1418.85 32.515L1426.63 34.9023C1435.28 37.958 1439.75 38.2445 1440.9 38.0057C1444.71 38.1967 1450.85 34.4248 1453.45 32.515C1459.07 36.5734 1469.45 39.6768 1475.94 32.515C1482.42 25.3532 1499.72 32.515 1501.45 32.515C1507.68 34.8068 1510.68 33.4699 1511.4 32.515C1525.24 24.6848 1532.45 24.1596 1534.32 24.8758C1549.2 26.7856 1551.19 24.08 1550.33 22.4885L1561.57 21.2949C1563.65 21.8678 1572.53 22.3293 1576.71 22.4885C1583.98 17.141 1602.52 18.1914 1610.88 19.385C1622.99 25.3055 1636.97 20.897 1642.45 17.9527Z" fill="white"/>
<path d="M1209.95 11.5076C1210.38 11.985 1205.19 15.5659 1205.19 15.8047C1193.08 11.9849 1178.52 11.0302 1172.75 11.0303C1158.57 6.25579 1148.1 9.04094 1144.64 11.0303C1130.8 7.2107 1129.5 13.4176 1107.88 12.7014C1090.58 15.1842 1076.45 13.5768 1071.55 12.4627C1065.32 16.5423 1054.53 16.0723 1049.92 15.3274C1021.9 7.49717 1011.72 9.35941 1010.13 11.2693C1001.48 8.8823 993.696 16.9985 988.074 17.9534C982.451 18.9083 979.856 14.6112 979.424 14.6112C978.991 14.6112 973.369 15.8049 964.719 16.7598C957.798 17.5237 941.94 15.6457 934.876 14.6112C925.534 16.3301 898.401 15.3274 886.003 14.6112C876.055 16.5211 882.976 16.9985 858.755 13.8951C834.535 10.7916 839.725 14.85 831.075 13.1789C824.155 11.842 810.892 12.3035 805.125 12.7014C803.539 12.0648 799.676 10.7439 796.908 10.5529C794.14 10.3619 791.717 10.9508 790.852 11.2691C790.852 10.3142 787.104 8.80221 785.23 8.16561C763.172 6.01707 744.142 9.8367 743.277 9.8367C742.412 9.8367 743.277 10.5529 736.79 8.88179C730.302 7.2107 726.41 11.2691 725.977 11.2691C713.002 7.68816 709.542 12.224 706.947 13.4176C704.352 14.6112 691.809 16.0436 686.187 17.476C680.564 18.9083 672.347 23.9216 667.589 24.8765C663.783 25.6404 643.802 25.0356 634.287 24.6378C630.394 27.2638 604.444 26.0701 599.686 25.354C594.929 24.6378 589.739 27.025 588.441 26.3089C587.144 25.5927 568.546 26.0701 548.651 22.728C532.735 20.0542 511.456 21.6139 502.806 22.728C490.696 30.3672 476.856 24.399 472.098 22.2505C468.292 20.5317 463.592 20.7386 461.718 21.0569C459.267 21.6139 453.933 22.728 452.203 22.728C450.041 22.728 441.823 26.7863 439.228 27.025C437.152 27.216 435.191 26.6272 434.47 26.3089C428.848 30.6059 425.388 30.8447 416.738 32.9932C409.818 34.712 392.518 29.2532 384.733 26.3089C376.948 28.6961 368.297 26.5476 360.512 25.8314C354.284 25.2585 350.421 25.5927 349.267 25.8314C343.068 24.3195 326.691 21.8685 310.775 24.1603C294.859 26.4521 282.23 23.6829 277.905 22.0118C262.767 22.0118 245.899 15.8049 241.142 14.85C236.384 13.8951 225.139 14.3725 225.139 14.85C225.139 15.3274 220.382 19.8632 219.517 19.8632C218.825 19.8632 217.787 19.2266 217.354 18.9083C210.434 20.4362 191.116 22.2505 182.321 22.9667L139.504 23.2054C131.2 21.2956 116.437 24.0012 110.094 25.5927H104.471V24.8765C115.284 16.9985 72.8983 22.728 70.7358 22.728C69.0059 22.728 64.8248 20.659 62.9507 19.6245L64.6808 19.147C65.5458 18.9083 66.8433 15.0887 67.7083 15.8049C68.4003 16.3778 71.4567 16.5211 72.8983 16.5211C110.094 12.224 105.768 15.8049 105.768 16.9985C105.768 18.1921 104.471 19.8632 106.634 20.102C108.364 20.2929 123.213 17.9534 130.421 16.7598C133.016 17.2372 138.985 17.9534 142.099 16.9985C145.991 15.8049 181.456 17.9534 183.186 16.9985C184.916 16.0436 206.109 14.85 211.299 14.1338C215.451 13.5608 217.354 12.781 217.787 12.4627C217.931 12.781 218.479 13.4653 219.517 13.6563C220.814 13.8951 222.977 10.3142 225.139 8.16561C226.869 6.44677 236.817 7.44943 241.574 8.16561C248.494 11.9852 276.607 16.0436 278.77 16.5211C280.932 16.9985 285.257 20.102 293.042 19.147C300.827 18.1921 326.345 17.9534 328.94 17.7147C331.535 17.476 345.375 19.8632 350.565 20.5794C355.755 21.2956 351.862 20.8181 358.35 19.8632C364.838 18.9083 369.162 21.773 373.92 22.0118C377.726 22.2028 382.714 21.1364 384.733 20.5794C397.708 26.3089 402.033 25.5927 411.548 27.9799C421.063 30.3672 434.47 20.102 434.47 20.3407C434.47 20.5794 439.228 21.2956 441.823 21.0569C444.418 20.8181 451.338 17.2372 452.203 16.9985C453.068 16.7598 453.068 16.9985 458.691 15.3274C463.189 13.9905 467.196 14.7704 468.638 15.3274C471.81 16.8394 479.797 20.102 486.371 21.0569C494.588 22.2505 500.211 18.1921 502.806 16.9985C505.401 15.8049 518.808 16.0436 519.673 16.0436C529.708 14.3248 539.424 15.3274 543.029 16.0436C554.447 17.9534 579.503 19.8632 590.604 20.5794C592.766 18.1921 617.419 22.0118 626.934 20.5794C634.546 19.4335 637.314 18.8287 637.747 18.6696C650.722 20.3407 664.129 19.3858 668.454 18.6696C672.779 17.9534 681.862 10.3142 686.187 10.7916C689.647 11.1736 702.334 7.7679 708.245 6.01732C715.165 -0.189328 721.22 3.39107 722.085 3.15234C722.95 2.91362 725.545 4.82343 726.41 3.86852C727.275 2.91362 731.6 1.48125 735.06 1.95871C738.52 2.43616 742.412 2.43642 743.277 2.43642C749.765 0.0491456 771.39 1.00405 776.58 1.00405H784.797C787.911 1.00405 790.132 3.23217 790.852 4.34623C793.274 1.86347 800.8 4.42581 804.26 6.01732C808.758 4.48947 816.514 5.38071 819.83 6.01732C823.434 6.49477 832.2 7.16321 838.428 6.01732C846.213 4.58496 855.728 6.7335 858.755 7.44968C861.783 8.16586 874.758 9.59822 880.813 9.3595C886.868 9.12077 885.138 7.21095 887.301 7.92714C889.463 8.64332 923.631 8.64332 929.253 7.92714C933.751 7.35419 940.643 8.16586 943.526 8.64332C960.134 11.699 974.666 9.43907 979.856 7.92714C981.24 10.0279 984.469 11.0306 985.911 11.2693C990.236 12.7017 998.886 6.7335 1001.91 4.82369C1004.94 2.91387 1006.67 3.63005 1007.54 4.1075C1008.23 4.48947 1010.42 4.26666 1011.43 4.1075C1019.65 0.287872 1040.84 6.01732 1050.79 8.88204C1060.73 11.7468 1070.25 6.01732 1071.55 6.01732C1072.84 6.01732 1081.93 8.16586 1084.95 7.92714C1087.38 7.73615 1101.25 6.57435 1107.88 6.01732C1109.32 6.65392 1114.97 7.2587 1126.04 4.58496C1137.11 1.91122 1142.48 3.31145 1143.77 4.34578C1149.31 1.28971 1155.02 1.00377 1157.18 1.24281C1161.51 0.287898 1172.32 4.34578 1173.62 4.34578C1184 2.91342 1209.51 11.0301 1209.95 11.5076Z" fill="white"/>
<path d="M62.9507 13.4176C62.0857 14.1338 63.8158 14.1338 64.2483 14.3725H49.1106C45.5063 15.0887 37.5195 16.0436 34.4055 14.1338C31.2915 12.224 28.2063 13.4972 27.053 14.3725C26.015 13.7996 9.0321 13.1789 0.67041 12.9401V6.25579C2.83289 5.53961 27.0531 8.16561 27.9181 7.44943C28.6101 6.87648 29.9364 6.5741 30.5131 6.49452C31.9547 7.05155 35.53 8.2611 38.2981 8.64306C41.7581 9.12052 46.0831 8.64306 48.2456 7.92688C50.4081 7.2107 65.9783 7.92688 67.2758 8.64306C68.5732 9.35924 65.9783 10.3142 64.2483 12.4627C62.5183 14.6112 63.8157 12.7014 62.9507 13.4176Z" fill="white"/>
<path d="M1204.76 28.9506L1209.82 11.4678L1202.08 13.8561L1190.71 28.4729L1204.76 28.9506Z" fill="white"/>
</svg>
