<svg width="19" height="18" viewBox="0 0 19 18" fill="none" xmlns="http://www.w3.org/2000/svg">
<path d="M0.26416 2.17249C0.26416 1.59528 0.466869 1.11909 0.872268 0.743923C1.27767 0.368737 1.80471 0.181152 2.45335 0.181152C3.09042 0.181152 3.60585 0.365845 3.99968 0.735265C4.40508 1.11622 4.60779 1.6126 4.60779 2.22444C4.60779 2.77855 4.41088 3.2403 4.01706 3.60972C3.61166 3.99067 3.07883 4.18115 2.4186 4.18115H2.40123C1.76415 4.18115 1.24872 3.99067 0.854894 3.60972C0.461066 3.22877 0.26416 2.74969 0.26416 2.17249ZM0.490029 17.324V5.75691H4.34717V17.324H0.490029ZM6.48424 17.324H10.3414V10.8651C10.3414 10.4611 10.3877 10.1494 10.4804 9.93007C10.6425 9.53756 10.8887 9.20567 11.2188 8.9344C11.5489 8.66311 11.963 8.52747 12.4611 8.52747C13.7584 8.52747 14.407 9.39904 14.407 11.1422V17.324H18.2642V10.692C18.2642 8.98345 17.8588 7.68764 17.0479 6.80453C16.2371 5.92141 15.1657 5.47985 13.8337 5.47985C12.3394 5.47985 11.1754 6.12054 10.3414 7.40193V7.43656H10.324L10.3414 7.40193V5.75691H6.48424C6.5074 6.12631 6.51899 7.27493 6.51899 9.20279C6.51899 11.1306 6.5074 13.8377 6.48424 17.324Z" fill="white"/>
</svg>
