<svg width="227" height="49" viewBox="0 0 227 49" fill="none" xmlns="http://www.w3.org/2000/svg">
<g id="Group 47297">
<path id="Vector" d="M8.34343 38.959H9.14042L17.9997 15.4141L17.1041 15.464L8.34343 38.959Z" stroke="#1D1E1C" stroke-width="1.24" stroke-miterlimit="2.61"/>
<path id="Vector_2" fill-rule="evenodd" clip-rule="evenodd" d="M2.31606 44.8475H21.5312L18.0535 47.1997L37.8632 47.186L36.1069 26.0208L38.4191 39.9831L51.0173 43.7207L55.1509 37.0862L52.4152 38.5677L51.2821 38.1605V36.9638L49.7231 37.3048L48.1891 36.3467L51.1822 29.3636L57.668 27.245L59.6555 29.0663L59.4182 31.4573L61.4656 29.4199L64.1127 23.004L65.1333 22.9777L64.8972 21.4475L64.0252 17.9697L52.7649 11.2927L51.6044 8.80433L33.0214 6.88806L21.8798 1.79883H19.8498L18.0285 2.43842L25.6136 12.4945L22.2283 10.2634L18.2458 12.5744L6.03617 32.3405L8.75942 33.5585L2.31606 44.8475Z" fill="#1D1E1C"/>
<path id="Vector_3" fill-rule="evenodd" clip-rule="evenodd" d="M54.5125 35.9009L57.8004 34.117L58.079 31.3213L58.2476 29.5999L57.3395 28.7679L52.1753 30.4544L49.878 35.8147L49.9679 35.8709L50.9948 35.646L52.6187 35.29V36.9227L54.5125 35.9009ZM17.1378 46.1918H0L1.14551 44.1843L6.8556 34.182L5.48773 33.5699L4.08488 32.9453L4.89311 31.6386L17.1028 11.8713L17.2814 11.5815L17.5712 11.4128L21.4213 9.17801L16.9541 3.25432L15.8436 1.78401L17.5862 1.1719L19.4075 0.533564L19.6324 0.453613H22.1608L22.4369 0.578533L33.3736 5.57533L51.7368 7.46911L52.5013 7.54781L52.8236 8.23862L53.8067 10.351L64.706 16.8131L65.1907 17.1004L65.3281 17.6463L66.2025 21.1229L66.2238 21.2478L66.4611 22.778L66.6935 24.2883L65.1644 24.3283H65.0208L62.7085 29.9347L62.6036 30.1845L62.4137 30.3694L60.3713 32.4119L58.49 34.2857L56.3001 37.8009L52.1665 44.4341L51.6231 45.3086L50.6425 45.0175L38.7426 41.4873L39.2061 47.0787L39.331 48.5328H37.8632L18.0534 48.5465H13.6537L17.1378 46.1918ZM2.31601 44.8476H21.5312L18.0534 47.1999L37.8632 47.1861L36.1068 26.021L38.4191 39.9882L51.0173 43.7258L55.1509 37.0914L52.4151 38.5729L51.2821 38.1657V36.9689L49.7231 37.31L48.1891 36.3518L51.1872 29.3688L57.673 27.2452L59.6605 29.0665L59.4231 31.4575L61.4706 29.42L64.1189 22.9991L65.1395 22.9729L64.9034 21.4426L64.0289 17.9649L52.7686 11.2879L51.6081 8.79951L33.0213 6.88449L21.8797 1.79526H19.8498L18.0234 2.43859L25.6086 12.4946L22.2232 10.2636L18.2408 12.5746L6.03113 32.3407L8.75438 33.5586L2.31601 44.8476Z" fill="#DE1F27"/>
<path id="Vector_4" fill-rule="evenodd" clip-rule="evenodd" d="M43.8032 33.621L50.0492 25.8248L58.9922 22.7305L23.5249 3.58777L21.0503 4.87944L24.4306 4.5484L25.751 5.62646L22.7917 7.35285L27.0814 6.60459L28.5742 7.74385L24.6742 9.89497L30.3243 9.16794L47.5383 22.5893L42.1592 22.0072L43.8032 33.621Z" fill="#3C3C3B"/>
<path id="Vector_5" fill-rule="evenodd" clip-rule="evenodd" d="M63.9615 22.2182L63.2619 18.608L58.1789 15.7986L60.9447 20.608L63.9615 22.2182Z" fill="#3C3C3B"/>
<path id="Vector_6" d="M63.9615 22.2182L63.2619 18.608L58.1789 15.7986L60.9447 20.608L63.9615 22.2182Z" stroke="#1D1E1C" stroke-width="1.24" stroke-miterlimit="2.61"/>
<path id="Vector_7" fill-rule="evenodd" clip-rule="evenodd" d="M44.5977 31.2389L48.9911 25.0092L55.5719 22.7144L42.2729 15.4028L49.5457 21.9024L47.1098 25.4514L44.8612 23.9036L44.5977 31.2389Z" fill="#71706F"/>
<path id="Vector_8" fill-rule="evenodd" clip-rule="evenodd" d="M50.8487 9.46385L43.4572 8.75806L52.3402 12.8929L50.8487 9.46385Z" fill="#71706F"/>
<path id="Vector_9" fill-rule="evenodd" clip-rule="evenodd" d="M50.3327 9.77002L47.8168 9.50269L51.1959 11.8912L50.3327 9.77002Z" fill="white"/>
<path id="Vector_10" fill-rule="evenodd" clip-rule="evenodd" d="M63.3856 20.8479L62.8772 18.7368L60.48 17.3152L63.3856 20.8479Z" fill="#71706F"/>
<path id="Vector_11" fill-rule="evenodd" clip-rule="evenodd" d="M34.5304 23.7537L31.4686 42.2018L26.5855 45.3586L35.7271 45.2661L34.5304 23.7537Z" fill="#71706F"/>
<path id="Vector_12" fill-rule="evenodd" clip-rule="evenodd" d="M26.6767 18.8767L22.2195 11.9698L19.4438 13.6188L8.17353 31.6297L10.6719 32.7203L4.83067 43.2073L19.0715 43.3585L21.6149 42.1892L21.4188 21.4775L24.4231 33.21L26.6767 18.8767ZM21.1127 15.7699L14.417 41.8619L6.9768 41.8882L12.4733 32.1806L10.2247 31.0301L20.1971 14.5157L22.0521 13.4714L23.8772 25.2626L21.1127 15.7699Z" fill="#71706F"/>
<path id="Vector_13" fill-rule="evenodd" clip-rule="evenodd" d="M29.0339 8.18494L26.5518 9.30672L30.0058 8.867L29.0339 8.18494Z" fill="white"/>
<path id="Vector_14" fill-rule="evenodd" clip-rule="evenodd" d="M26.1233 5.94373L24.172 6.82566L26.7142 6.35971L26.1233 5.94373Z" fill="white"/>
<path id="Vector_15" d="M22.4144 4.44337L24.1558 4.24475L23.6761 3.90747L22.4144 4.44337Z" fill="white"/>
<path id="Vector_16" fill-rule="evenodd" clip-rule="evenodd" d="M55.5719 22.7142L47.4396 18.2433L54.4876 23.0927L55.5719 22.7142Z" fill="white"/>
<path id="Vector_17" fill-rule="evenodd" clip-rule="evenodd" d="M30.0033 44.3766L34.6516 44.2304L34.3443 31.9771L32.9664 41.727L33.5598 42.7351L30.0033 44.3766Z" fill="#71706F"/>
<path id="Vector_18" fill-rule="evenodd" clip-rule="evenodd" d="M53.0273 23.6014L48.1454 20.6508L52.0266 23.9511L53.0273 23.6014Z" fill="white"/>
<path id="Vector_19" fill-rule="evenodd" clip-rule="evenodd" d="M59.9541 22.3371L36.7365 10.7183L58.8698 22.7143L59.9541 22.3371Z" fill="#DE1F27"/>
<path id="Vector_20" fill-rule="evenodd" clip-rule="evenodd" d="M86.2672 15.1179H94.5844L95.4238 11.5952L87.033 11.544L86.2672 15.1179ZM78.772 23.7998L83.7688 23.7799L84.6832 19.7937L97.44 19.7112C97.8847 19.7112 98.3932 19.239 98.5068 18.798L101.3 8.00872C101.431 7.5003 100.967 6.93066 100.453 6.93066H82.8769L78.772 23.7998Z" fill="#DE1F27"/>
<path id="Vector_21" fill-rule="evenodd" clip-rule="evenodd" d="M83.7738 25.8547L78.777 25.8747L76.1249 25.8859L76.7495 23.3113L80.8544 6.44715L81.2404 4.86067H100.453V4.85193C100.691 4.85452 100.927 4.88684 101.156 4.94812C101.786 5.11835 102.344 5.48722 102.748 5.99994C103.166 6.52049 103.398 7.16611 103.406 7.83377C103.404 8.06967 103.371 8.30431 103.31 8.53207L100.514 19.3214C100.329 19.9801 99.952 20.5689 99.4312 21.0128C98.8796 21.4946 98.1772 21.7689 97.445 21.7886L86.3396 21.8598L85.7925 24.2482L85.4177 25.8535L83.7738 25.8547ZM86.2722 15.1116H94.5893L95.4288 11.5889L87.0379 11.5376L86.2722 15.1116ZM78.777 23.7935L83.7738 23.7735L84.6882 19.7873L97.445 19.7049C97.8897 19.7049 98.3981 19.2327 98.5118 18.7917L101.3 8.00865C101.431 7.50023 100.966 6.93059 100.453 6.93059H82.8768L78.777 23.7935Z" fill="#1D1E1C"/>
<path id="Vector_22" fill-rule="evenodd" clip-rule="evenodd" d="M96.0397 23.7125H102.748L113.973 13.3891L112.632 19.1916C111.543 19.1916 111.4 19.2129 110.282 19.2041L105.422 23.7012L116.779 23.7187L120.776 6.922H113.375L96.0397 23.7125Z" fill="#DE1F27"/>
<path id="Vector_23" fill-rule="evenodd" clip-rule="evenodd" d="M102.748 25.7961H90.9067L94.5918 22.2246L111.923 5.42662L112.537 4.83325H123.405L122.795 7.39536L118.798 24.1921L118.423 25.7898H116.776L105.42 25.7723H103.582L103.551 25.801L102.748 25.7961ZM96.0397 23.7124H102.748L113.973 13.389L112.632 19.1915C111.543 19.1915 111.4 19.2128 110.282 19.204L105.422 23.7011L116.779 23.7186L120.776 6.92191H113.375L96.0397 23.7124Z" fill="#1D1E1C"/>
<path id="Vector_24" fill-rule="evenodd" clip-rule="evenodd" d="M118.681 23.7136H124.015L126.212 14.3184L131.783 23.7136H137.658L141.665 6.90942L136.286 6.9419L134.097 15.6725L128.882 6.9419H122.7L118.681 23.7136Z" fill="#DE1F27"/>
<path id="Vector_25" fill-rule="evenodd" clip-rule="evenodd" d="M124.015 25.7959H116.049L116.664 23.2325L120.683 6.46206L121.066 4.85934H130.06L130.667 5.87619L133.303 10.2909L134.27 6.43708L134.661 4.87683L136.285 4.86684L141.665 4.83436L144.312 4.81812L143.693 7.38397L139.685 24.1882L139.303 25.7909H130.601L129.993 24.7653L127.061 19.821L126.042 24.1794L125.667 25.7909L124.015 25.7959ZM118.681 23.7122H124.015L126.212 14.3183L131.783 23.7122H137.654L141.662 6.90928L136.283 6.94175L134.093 15.6724L128.88 6.94175H122.706L118.681 23.7122Z" fill="#1D1E1C"/>
<path id="Vector_26" fill-rule="evenodd" clip-rule="evenodd" d="M143.643 6.9082H162.193L161.118 11.5227H154.497L151.602 23.6887L146.158 23.6987L149.091 11.464L142.527 11.4553L143.643 6.9082Z" fill="#DE1F27"/>
<path id="Vector_27" fill-rule="evenodd" clip-rule="evenodd" d="M143.643 6.90798H162.193L161.118 11.5238H154.497L151.602 23.6885L146.158 23.6985L149.091 11.4638L142.527 11.4551L143.643 6.90798ZM143.643 4.82556H164.816L164.22 7.38392L163.143 11.9985L162.768 13.6099H156.147L153.631 24.1732L153.257 25.7646H151.61L146.166 25.7746H143.534L144.149 23.2163L146.47 13.5325H142.536H139.892L140.516 10.9729L141.632 6.42703L142.023 4.83181L143.643 4.82556Z" fill="#1D1E1C"/>
<path id="Vector_28" fill-rule="evenodd" clip-rule="evenodd" d="M164.071 6.9082H169.449L168.112 13.083L176.143 13.1167L177.649 6.9082H183.225L179.213 23.8049H173.636L174.969 17.6351L167.17 17.6638L165.47 23.8049H159.994L164.071 6.9082Z" fill="#DE1F27"/>
<path id="Vector_29" fill-rule="evenodd" clip-rule="evenodd" d="M164.072 6.90798H169.444L168.107 13.0828L176.138 13.1165L177.637 6.90798H183.214L179.201 23.8046H173.636L174.969 17.6348L167.17 17.6636L165.47 23.8046H159.994L164.072 6.90798ZM164.072 4.82556H172.03L171.484 7.34769L170.688 11.0191L174.512 11.0353L175.636 6.42079L176.022 4.82556H185.865L185.251 7.38392L181.239 24.2793L180.864 25.8833H171.063L171.609 23.3599L172.397 19.7135L168.758 19.7273L167.478 24.3493L167.053 25.8883H157.359L157.984 23.3162L162.056 6.42079L162.441 4.82556H164.072Z" fill="#1D1E1C"/>
<path id="Vector_30" fill-rule="evenodd" clip-rule="evenodd" d="M185.084 6.91199L203.923 6.93822L202.889 11.3941L189.325 11.3541L188.951 13.0818L202.485 13.1305L201.438 17.6364L187.815 17.5976L187.281 19.3378L201.026 19.4115L200.017 23.7574L181.056 23.7849L185.084 6.91199Z" fill="#DE1F27"/>
<path id="Vector_31" fill-rule="evenodd" clip-rule="evenodd" d="M185.083 6.91088L203.923 6.93711L202.889 11.3943L189.325 11.3543L188.95 13.0819L202.484 13.1306L201.437 17.6365L187.813 17.5978L187.28 19.3379L201.021 19.4116L200.012 23.7576L181.051 23.7851L185.083 6.91088ZM185.083 4.83721L203.923 4.86344H206.539L205.949 7.39806L205.098 11.0632L205.03 11.3568L204.915 11.8565L204.54 13.4729L204.513 13.5978L203.638 17.3542L203.052 19.8763L202.043 24.2223L201.668 25.8312H200.017L181.056 25.8587H178.421L179.031 23.3004L183.058 6.42619L183.439 4.82971L185.083 4.83721Z" fill="#1D1E1C"/>
<path id="Vector_32" fill-rule="evenodd" clip-rule="evenodd" d="M205.824 6.93689H223.62C224.084 6.93689 224.692 7.43657 224.578 7.89002L221.806 18.9817C221.766 19.1097 221.696 19.2265 221.603 19.3227C221.509 19.4188 221.394 19.4915 221.267 19.5351L219.089 20.2508L220.519 22.3408C220.681 22.5768 220.835 22.8867 220.768 23.1777L220.628 23.7336H214.018L212.054 20.2758C211.964 20.1154 211.836 19.9795 211.682 19.8799C211.527 19.7804 211.35 19.7203 211.167 19.7049L209.9 19.6762L211.002 15.1166L217.137 15.1279L218.124 11.4902L210.054 11.464L207.091 23.7336H201.957L205.824 6.93689Z" fill="#DE1F27"/>
<path id="Vector_33" fill-rule="evenodd" clip-rule="evenodd" d="M205.824 6.93705H223.62C224.084 6.93705 224.692 7.43672 224.578 7.89018L221.807 18.9818C221.766 19.1099 221.696 19.2267 221.603 19.3228C221.509 19.4189 221.394 19.4917 221.267 19.5352L219.09 20.251L220.519 22.3397C220.681 22.577 220.835 22.8868 220.768 23.1766L220.629 23.7338H214.018L212.054 20.276C211.965 20.1154 211.837 19.9793 211.682 19.8799C211.527 19.7806 211.35 19.7209 211.167 19.7064L209.9 19.6764L211.002 15.1168L217.137 15.128L218.124 11.4904L210.054 11.4641L207.091 23.7338H201.957L205.824 6.93705ZM205.824 4.85463H223.62C223.851 4.85635 224.081 4.88656 224.305 4.94458H224.314C224.878 5.09088 225.395 5.38195 225.813 5.78903V5.79653C226.081 6.05259 226.295 6.35937 226.444 6.69905C226.593 7.03873 226.672 7.40454 226.678 7.77526H226.671C226.673 7.98105 226.649 8.18625 226.6 8.38612V8.39486L223.828 19.4865C223.703 19.9687 223.454 20.4096 223.104 20.7644C222.883 20.9927 222.626 21.1841 222.344 21.3316C222.489 21.5621 222.608 21.8081 222.7 22.0648C222.885 22.5818 222.914 23.1419 222.782 23.6751V23.6838L222.642 24.2397L222.249 25.8174H212.809L212.208 24.7594L210.509 21.7613L209.865 21.7475H209.712L209.113 24.221L208.729 25.8149H199.35L199.936 23.2678L203.808 6.47235L204.183 4.84839L205.824 4.85463Z" fill="#1D1E1C"/>
<path id="Vector_34" fill-rule="evenodd" clip-rule="evenodd" d="M94.5843 15.564H85.715L85.8312 15.0256L86.597 11.4504L86.6732 11.0968H87.0342L95.4251 11.1481H95.9872L95.8623 11.6927L95.0228 15.2154L94.9416 15.559L94.5843 15.564ZM86.2659 15.118H94.5843L95.4226 11.5953L87.0329 11.5428L86.2659 15.118ZM78.7707 23.7999L83.7675 23.7799L84.6807 19.7938L97.4375 19.7113C97.8835 19.7113 98.3919 19.2379 98.5056 18.7994L101.3 8.00882C101.431 7.50164 100.966 6.93201 100.453 6.93201H82.8756L78.7707 23.7999ZM79.3379 23.3527L83.4115 23.3377L84.246 19.6938L84.3247 19.3503H84.6782L97.435 19.2666C97.5692 19.2492 97.6942 19.1887 97.791 19.0942C97.9227 18.989 98.0212 18.848 98.0746 18.6882L100.87 7.89889C100.873 7.87646 100.873 7.85385 100.87 7.83143C100.867 7.73187 100.83 7.63641 100.765 7.56035C100.703 7.47736 100.615 7.41687 100.516 7.38796C100.493 7.38204 100.469 7.3791 100.446 7.37922H83.2316L79.3379 23.3527Z" fill="white"/>
<path id="Vector_35" fill-rule="evenodd" clip-rule="evenodd" d="M96.0397 23.7137H102.747L113.972 13.3891L112.63 19.1917C111.543 19.1917 111.4 19.2141 110.282 19.2029L105.424 23.7L116.779 23.7175L120.776 6.92078H113.376L96.0397 23.7137ZM97.1402 23.2665H102.574L113.671 13.0618L114.73 12.0862L114.407 13.4878L113.065 19.2916L112.985 19.6389H112.63C112.036 19.6389 111.807 19.6389 111.595 19.6389C111.272 19.6389 110.978 19.6464 110.454 19.6389L106.557 23.249L116.425 23.264L120.208 7.36299H113.551L97.1402 23.2665Z" fill="white"/>
<path id="Vector_36" fill-rule="evenodd" clip-rule="evenodd" d="M118.681 23.7136H124.015L126.212 14.3184L131.783 23.7136H137.654L141.66 6.90942L136.28 6.9419L134.092 15.6725L128.879 6.9419H122.706L118.681 23.7136ZM119.246 23.2664H123.662L125.778 14.2172L126.595 14.0923L132.035 23.2664H137.306L141.1 7.35664L136.634 7.38412L134.529 15.78L133.714 15.9049L128.631 7.38412H123.05L119.246 23.2664Z" fill="white"/>
<path id="Vector_37" fill-rule="evenodd" clip-rule="evenodd" d="M161.631 7.35538H143.991L143.094 11.0068L149.091 11.0143H149.653L149.528 11.5614L146.721 23.2489L151.248 23.2414L154.061 11.4203L154.142 11.0767H160.763L161.631 7.35538ZM143.643 6.90942H162.193L161.118 11.5227H154.497L151.602 23.6887L146.158 23.6986L149.091 11.464L142.527 11.4553L143.643 6.90942Z" fill="white"/>
<path id="Vector_38" fill-rule="evenodd" clip-rule="evenodd" d="M168.895 7.35538H164.422L160.557 23.3589H165.13L166.741 17.5451L166.829 17.2203H167.169L174.968 17.1891H175.521L175.405 17.73L174.187 23.3601H178.859L182.659 7.35664H177.997L176.574 13.2279L176.492 13.5702H176.14L168.11 13.5364H167.559L167.675 13.0005L168.895 7.35538ZM164.072 6.90942H169.444L168.107 13.083L176.138 13.1167L177.637 6.90942H183.214L179.201 23.8048H173.636L174.969 17.635L167.17 17.6638L165.47 23.8048H159.994L164.072 6.90942Z" fill="white"/>
<path id="Vector_39" fill-rule="evenodd" clip-rule="evenodd" d="M203.363 7.38401L185.436 7.35902L181.621 23.3488L199.663 23.3213L200.466 19.861L187.28 19.791H186.682L186.855 19.2202L187.389 17.4788L187.486 17.1627H187.815L201.085 17.2002L201.925 13.5775L188.951 13.5301H188.399L188.515 12.9929L188.89 11.2665L188.966 10.9142H189.326L202.535 10.953L203.363 7.38401ZM185.083 6.91431L203.923 6.93929L202.889 11.3964L189.325 11.3565L188.95 13.0841L202.484 13.1328L201.437 17.6387L187.813 17.6L187.28 19.3401L201.021 19.4138L200.012 23.7598L181.051 23.7872L185.083 6.91431Z" fill="white"/>
<path id="Vector_40" fill-rule="evenodd" clip-rule="evenodd" d="M223.62 7.3841H206.178L202.515 23.2864H206.74L209.621 11.3591L209.703 11.018H210.053L218.123 11.0443H218.705L218.554 11.6039L217.567 15.2428L217.477 15.5713H217.136L211.351 15.5601L210.461 19.2515L211.166 19.2677C211.426 19.2769 211.678 19.3573 211.895 19.5001C212.116 19.6423 212.3 19.835 212.431 20.0622L214.273 23.2864H220.269L220.324 23.069C220.332 23.006 220.324 22.9418 220.3 22.8829C220.261 22.7796 220.209 22.6818 220.145 22.5918L218.722 20.5007L218.387 20.011L218.952 19.8261L221.129 19.1116C221.191 19.0887 221.247 19.0519 221.292 19.0041C221.329 18.9698 221.357 18.9269 221.374 18.8792L224.141 7.78135V7.7751C224.126 7.70073 224.085 7.63399 224.026 7.58647C223.935 7.49495 223.821 7.42868 223.696 7.39409C223.67 7.38781 223.643 7.38446 223.615 7.3841M205.819 6.93689H223.615C224.079 6.93689 224.687 7.43657 224.573 7.89002L221.801 18.9817C221.761 19.1097 221.691 19.2265 221.598 19.3227C221.504 19.4188 221.389 19.4915 221.262 19.5351L219.089 20.2508L220.519 22.3408C220.681 22.5768 220.835 22.8867 220.768 23.1777L220.628 23.7336H214.018L212.054 20.2758C211.964 20.1154 211.836 19.9795 211.682 19.8799C211.527 19.7804 211.35 19.7203 211.167 19.7049L209.9 19.6762L211.002 15.1166L217.137 15.1279L218.124 11.4902L210.054 11.464L207.091 23.7336H201.957L205.819 6.93689Z" fill="white"/>
<path id="Vector_41" fill-rule="evenodd" clip-rule="evenodd" d="M74.7458 42.1119H93.3301L95.5912 32.959C95.6661 32.6554 95.3251 32.2682 95.0166 32.2657L83.9112 32.1957L83.0068 36.1532L89.2528 36.1657L88.8718 38.017L80.627 37.9645L82.4034 30.3444L96.1658 30.3944L96.9728 27.3538C97.1639 26.6343 96.1958 25.8411 95.4613 25.8411H79.8588C79.0668 25.8411 78.1586 26.6356 77.985 27.4163L74.7458 42.1119Z" fill="#DE1F27"/>
<path id="Vector_42" fill-rule="evenodd" clip-rule="evenodd" d="M93.3302 44.1793H72.1725L72.7259 41.6659L75.9613 26.9716C76.1449 26.1359 76.6871 25.3264 77.3717 24.7492C78.0562 24.1721 78.9631 23.7711 79.8538 23.7711H95.4625C95.7475 23.7737 96.0309 23.8132 96.3057 23.8885C96.9743 24.0747 97.5839 24.4296 98.0759 24.9191C98.3811 25.2101 98.6259 25.5586 98.7961 25.9445C98.9663 26.3303 99.0587 26.746 99.0677 27.1677C99.0663 27.4091 99.0336 27.6493 98.9703 27.8822L98.1658 30.9203L97.7573 32.4618H97.6324C97.6566 32.6008 97.6683 32.7417 97.6674 32.8828V32.8903C97.6675 33.0801 97.6449 33.2692 97.5999 33.4537L95.3401 42.6065L94.9504 44.183L93.3302 44.1793ZM74.7458 42.1119H93.3302L95.5912 32.959C95.6662 32.6554 95.3251 32.2682 95.0166 32.2657L83.9112 32.1957L83.0068 36.1532L89.2528 36.1657L88.8718 38.017L80.6271 37.9645L82.4034 30.3444L96.1658 30.3944L96.9728 27.3538C97.164 26.6343 96.1958 25.841 95.4613 25.841H79.8588C79.0668 25.841 78.1586 26.6355 77.985 27.4163L74.7458 42.1119Z" fill="#1D1E1C"/>
<path id="Vector_43" fill-rule="evenodd" clip-rule="evenodd" d="M95.1977 42.1118H113.996L117.796 25.8298H112.713L111.326 31.8384L103.244 31.8634L104.508 25.8273H99.1864L96.8866 35.2137C96.7617 35.7259 97.3763 36.3118 97.8985 36.313L110.049 36.338L109.637 38.1394L96.1783 38.1044L95.1977 42.1118Z" fill="#DE1F27"/>
<path id="Vector_44" fill-rule="evenodd" clip-rule="evenodd" d="M113.996 44.1791H92.5669L93.1915 41.6245L94.1746 37.6146L94.5619 36.0331H94.8992C94.8395 35.8086 94.8092 35.5772 94.8092 35.3448C94.8087 35.1344 94.8335 34.9247 94.8829 34.7202L97.1827 25.3337L97.5699 23.7498H107.05L106.529 26.2469L105.78 29.7934L109.673 29.7809L110.694 25.3725L111.063 23.7635H120.4L119.808 26.3019L116.008 42.5839L115.633 44.1841L113.996 44.1791ZM95.1977 42.1117H113.996L117.796 25.8297H112.713L111.326 31.8383L103.244 31.8633L104.508 25.8272H99.1864L96.8866 35.2137C96.7617 35.7258 97.3763 36.3117 97.8985 36.3129L110.049 36.3379L109.637 38.1393L96.1783 38.1043L95.1977 42.1117Z" fill="#1D1E1C"/>
<path id="Vector_45" fill-rule="evenodd" clip-rule="evenodd" d="M115.961 42.1119H121.302L124.119 30.3694H126.243L123.639 42.1119H128.886L131.451 30.3856L133.749 30.3607L131.212 42.1119H136.59L140.07 26.317C140.12 26.0859 139.865 25.7986 139.632 25.7986H121.568C120.71 25.7986 119.582 26.4582 119.387 27.3039L115.961 42.1119Z" fill="#DE1F27"/>
<path id="Vector_46" fill-rule="evenodd" clip-rule="evenodd" d="M121.305 44.1791H113.366L113.951 41.6483L117.371 26.8428C117.59 25.8984 118.218 25.1114 118.995 24.573C119.75 24.0481 120.642 23.7546 121.562 23.7285H139.625C139.793 23.7296 139.961 23.7484 140.125 23.7847H140.133C140.674 23.9147 141.159 24.2146 141.517 24.6404C141.907 25.0892 142.126 25.6612 142.135 26.2556C142.135 26.4236 142.117 26.5911 142.081 26.7553V26.7641L138.605 42.5564L138.246 44.1804H121.305V44.1791ZM115.961 42.1117H121.302L124.119 30.3693H126.243L123.639 42.1117H128.886L131.451 30.3855L133.749 30.3605L131.212 42.1117H136.59L140.07 26.3169C140.12 26.0857 139.865 25.7984 139.632 25.7984H121.568C120.71 25.7984 119.582 26.458 119.387 27.3037L115.961 42.1117Z" fill="#1D1E1C"/>
<path id="Vector_47" fill-rule="evenodd" clip-rule="evenodd" d="M74.7458 42.1119H93.3301L95.5912 32.959C95.6661 32.6555 95.3251 32.2682 95.0166 32.2657L83.9124 32.197L83.008 36.152L89.254 36.167L88.8793 38.017L80.6345 37.9633L82.4109 30.3432L96.1733 30.3944L96.9728 27.3539C97.1639 26.6343 96.1958 25.8398 95.4613 25.8398H79.8588C79.068 25.8398 78.1599 26.6356 77.985 27.4176L74.7458 42.1119ZM75.298 41.6684H92.9841L95.159 32.8678C95.149 32.8389 95.1328 32.8124 95.1115 32.7904C95.0852 32.7542 95.0487 32.7268 95.0066 32.7117L84.2635 32.6442L83.5614 35.716L89.2515 35.7285H89.7924L89.6837 36.2582L89.309 38.1082L89.2365 38.4642H88.8743L80.6295 38.4105H80.0749L80.1998 37.8721L81.9749 30.252L82.0549 29.9085H82.4072L95.8285 29.9585L96.5468 27.2464C96.5525 27.2214 96.5554 27.1959 96.5556 27.1702C96.5352 26.9844 96.4461 26.8128 96.3057 26.6893C96.1296 26.5129 95.9118 26.384 95.6724 26.3145C95.6056 26.2961 95.5368 26.2864 95.4675 26.2858H79.8588C79.5333 26.3084 79.2251 26.4405 78.9843 26.6606C78.7107 26.8768 78.5126 27.1742 78.4185 27.51L75.298 41.6684Z" fill="white"/>
<path id="Vector_48" fill-rule="evenodd" clip-rule="evenodd" d="M95.1977 42.1119H113.996L117.796 25.8311H112.705L111.331 31.841L103.249 31.8659L104.513 25.8311H99.1914L96.8916 35.2163C96.7667 35.7285 97.3813 36.3143 97.9035 36.3156L110.053 36.3406L109.642 38.1407L96.1846 38.1057L95.1977 42.1119ZM95.7611 41.6684H113.645L117.237 26.2733H113.059L111.758 31.9409L111.68 32.2819H111.326L103.244 32.3069H102.699L102.81 31.7735L103.963 26.277H99.5337L97.3163 35.3237C97.3152 35.3349 97.3152 35.3462 97.3163 35.3574C97.3284 35.4669 97.3794 35.5684 97.46 35.6435C97.5561 35.75 97.6804 35.8271 97.8185 35.8659C97.8458 35.8733 97.8739 35.8775 97.9022 35.8784L110.052 35.9033H110.607L110.482 36.443L110.068 38.2393L109.991 38.5829H109.637L96.5206 38.5491L95.7611 41.6684Z" fill="white"/>
<path id="Vector_49" fill-rule="evenodd" clip-rule="evenodd" d="M115.961 42.1118H121.302L124.119 30.3693H126.243L123.641 42.1118H128.887L131.451 30.3855L133.749 30.3593L131.212 42.1118H136.59L140.07 26.3157C140.121 26.0858 139.864 25.7972 139.632 25.7972H121.568C120.71 25.7972 119.583 26.4568 119.387 27.3038L115.961 42.1118ZM116.518 41.6683H120.957L123.692 30.2619L123.773 29.9221H126.799L126.674 30.4592L124.189 41.6683H128.53L131.008 30.3006L131.083 29.9571H131.437L133.735 29.9308H134.289L134.173 30.4705L131.754 41.6845H136.228L139.619 26.2769L139.603 26.2607H121.565C121.153 26.2777 120.756 26.414 120.42 26.6529C120.118 26.8628 119.881 27.1339 119.814 27.4212L116.518 41.6683Z" fill="white"/>
</g>
</svg>
