<svg width="49" height="23" viewBox="0 0 49 23" fill="none" xmlns="http://www.w3.org/2000/svg">
<path id="Arrow 3" d="M2.26709 13.4014L0.76709 13.4014L0.76709 10.4014L2.26709 10.4014L2.26709 13.4014ZM48.1214 10.8407C48.7072 11.4265 48.7072 12.3762 48.1214 12.962L38.5754 22.508C37.9896 23.0938 37.0399 23.0938 36.4541 22.508C35.8683 21.9222 35.8683 20.9724 36.4541 20.3866L44.9394 11.9014L36.4541 3.41608C35.8683 2.8303 35.8683 1.88055 36.4541 1.29476C37.0399 0.708976 37.9896 0.708976 38.5754 1.29476L48.1214 10.8407ZM2.26709 10.4014L47.0607 10.4014L47.0607 13.4014L2.26709 13.4014L2.26709 10.4014Z" fill="#E10A17"/>
</svg>
