<svg width="49" height="23" viewBox="0 0 49 23" fill="none" xmlns="http://www.w3.org/2000/svg">
<path id="Arrow 2" d="M47.1657 13.4014L48.6657 13.4014L48.6657 10.4014L47.1657 10.4014L47.1657 13.4014ZM1.31144 10.8407C0.725655 11.4265 0.725655 12.3762 1.31144 12.962L10.8574 22.508C11.4432 23.0938 12.3929 23.0938 12.9787 22.508C13.5645 21.9222 13.5645 20.9724 12.9787 20.3866L4.49342 11.9014L12.9787 3.41608C13.5645 2.8303 13.5645 1.88055 12.9787 1.29476C12.3929 0.708976 11.4432 0.708976 10.8574 1.29476L1.31144 10.8407ZM47.1657 10.4014L2.3721 10.4014L2.3721 13.4014L47.1657 13.4014L47.1657 10.4014Z" fill="#E10A17"/>
</svg>
