<svg width="19" height="16" viewBox="0 0 19 16" fill="none" xmlns="http://www.w3.org/2000/svg">
<path d="M12.2912 0.953925V0.950684H13.1352L13.4436 1.01228C13.6492 1.05226 13.8359 1.10466 14.0036 1.1695C14.1713 1.23433 14.3336 1.30998 14.4905 1.39641C14.6474 1.48285 14.7897 1.57093 14.9174 1.66061C15.044 1.74922 15.1576 1.84323 15.2582 1.94264C15.3578 2.04313 15.513 2.06906 15.724 2.02044C15.935 1.97181 16.1623 1.90427 16.4057 1.81783C16.6492 1.73139 16.89 1.63414 17.128 1.52608C17.3661 1.41802 17.5111 1.34941 17.563 1.32024C17.6139 1.28999 17.6409 1.27378 17.6442 1.27161L17.6474 1.26675L17.6636 1.25864L17.6798 1.25054L17.6961 1.24243L17.7123 1.23433L17.7156 1.22947L17.7204 1.22623L17.7253 1.22298L17.7285 1.21812L17.7448 1.21326L17.761 1.21002L17.7578 1.23433L17.7529 1.25864L17.7448 1.28296L17.7367 1.30727L17.7285 1.32348L17.7204 1.33969L17.7123 1.364C17.7069 1.38021 17.7015 1.40181 17.6961 1.42883C17.6907 1.45585 17.6393 1.5639 17.5419 1.753C17.4445 1.9421 17.3228 2.1339 17.1767 2.3284C17.0306 2.5229 16.8997 2.66984 16.7839 2.76927C16.6671 2.86976 16.5897 2.93999 16.5518 2.97998C16.5139 3.02103 16.468 3.05885 16.4138 3.09344L16.3327 3.14692L16.3165 3.15503L16.3002 3.16313L16.297 3.16799L16.2921 3.17124L16.2872 3.17448L16.284 3.17934L16.2678 3.18744L16.2515 3.19555L16.2483 3.20041L16.2434 3.20365L16.2386 3.20689L16.2353 3.21176L16.2321 3.21662L16.2272 3.21986L16.2223 3.2231L16.2191 3.22796H16.3002L16.7547 3.13071C17.0577 3.06588 17.3471 2.98755 17.623 2.89569L18.0613 2.74982L18.11 2.73361L18.1343 2.7255L18.1505 2.7174L18.1668 2.7093L18.183 2.70119L18.1992 2.69309L18.2317 2.68822L18.2642 2.68498V2.7174L18.256 2.72064L18.2479 2.7255L18.2447 2.73037L18.2398 2.73361L18.2349 2.73685L18.2317 2.74171L18.2285 2.74658L18.2236 2.74982L18.2187 2.75306L18.2155 2.75792L18.2122 2.76278L18.2074 2.76603L18.1992 2.78223L18.1911 2.79844L18.1863 2.80168C18.1841 2.80493 18.1154 2.89676 17.9801 3.07723C17.8449 3.25876 17.7718 3.3506 17.761 3.35277C17.7502 3.35601 17.735 3.37222 17.7156 3.40139C17.6972 3.43164 17.5825 3.55213 17.3715 3.76284C17.1605 3.97355 16.9538 4.16102 16.7515 4.32527C16.548 4.4906 16.4452 4.69374 16.4431 4.93471C16.4398 5.17459 16.4274 5.44583 16.4057 5.74837C16.3841 6.05093 16.3435 6.37779 16.284 6.72898C16.2245 7.08017 16.1325 7.47727 16.0081 7.9203C15.8836 8.36332 15.7321 8.79555 15.5536 9.21697C15.3751 9.63839 15.1884 10.0166 14.9936 10.3516C14.7989 10.6865 14.6203 10.9702 14.458 11.2025C14.2957 11.4348 14.1307 11.6536 13.963 11.8589C13.7953 12.0643 13.5832 12.2955 13.3268 12.5527C13.0692 12.8088 12.9286 12.9492 12.9048 12.9741C12.8799 12.9979 12.7738 13.0865 12.5866 13.2399C12.4005 13.3944 12.2003 13.5489 11.9861 13.7035C11.7729 13.8569 11.5771 13.985 11.3985 14.0876C11.22 14.1902 11.0047 14.3075 10.7525 14.4393C10.5015 14.5722 10.2299 14.6954 9.93774 14.8089C9.64559 14.9223 9.3372 15.0277 9.01258 15.1249C8.68797 15.2222 8.37417 15.2978 8.07119 15.3519C7.76823 15.4059 7.42467 15.4518 7.04053 15.4896L6.46434 15.5464V15.5545H5.40934V15.5464L5.27137 15.5383C5.17941 15.5329 5.10366 15.5274 5.04414 15.522C4.98464 15.5166 4.7601 15.4869 4.37056 15.4329C3.98102 15.3789 3.67535 15.3248 3.45352 15.2708C3.23171 15.2168 2.90167 15.1141 2.46344 14.9629C2.02521 14.8116 1.65027 14.6587 1.33864 14.5042C1.0281 14.3507 0.833327 14.2535 0.754331 14.2124C0.676423 14.1724 0.588777 14.1227 0.491392 14.0633L0.345314 13.9741L0.342084 13.9693L0.337199 13.966L0.33233 13.9628L0.329084 13.9579L0.312853 13.9498L0.296622 13.9417L0.293392 13.9369L0.288506 13.9336L0.283637 13.9304L0.280391 13.9255L0.277161 13.9207L0.272276 13.9174H0.26416V13.885L0.280391 13.8882L0.296622 13.8931L0.369661 13.9012C0.418353 13.9066 0.55091 13.9147 0.767316 13.9255C0.983738 13.9363 1.21366 13.9363 1.45713 13.9255C1.70059 13.9147 1.94947 13.8904 2.20375 13.8526C2.45803 13.8148 2.7583 13.7499 3.10456 13.6581C3.45083 13.5662 3.76895 13.4571 4.05895 13.3307C4.34786 13.2032 4.55343 13.1081 4.67572 13.0454C4.7969 12.9838 4.98193 12.8693 5.2308 12.7018L5.60411 12.4505L5.60735 12.4457L5.61222 12.4424L5.61711 12.4392L5.62034 12.4343L5.62358 12.4295L5.62845 12.4262L5.63334 12.423L5.63657 12.4181L5.6528 12.4133L5.66903 12.41L5.67228 12.3938L5.67714 12.3776L5.68203 12.3744L5.68526 12.3695L5.55541 12.3614C5.46885 12.356 5.38499 12.3506 5.30384 12.3452C5.22268 12.3398 5.09555 12.3155 4.92241 12.2723C4.74929 12.229 4.56264 12.1642 4.36245 12.0778C4.16227 11.9913 3.9675 11.8887 3.77814 11.7698C3.58879 11.6509 3.4519 11.5521 3.3675 11.4732C3.28418 11.3954 3.17597 11.2852 3.04288 11.1425C2.91087 10.9988 2.79617 10.8513 2.69879 10.7C2.6014 10.5488 2.50835 10.3742 2.41963 10.1765L2.2849 9.88152L2.27678 9.8572L2.26867 9.83289L2.2638 9.81668L2.26055 9.80047L2.2849 9.80372L2.30925 9.80858L2.48779 9.83289C2.60682 9.8491 2.79348 9.8545 3.04775 9.8491C3.30204 9.8437 3.47787 9.83289 3.57525 9.81668C3.67264 9.80047 3.73215 9.78966 3.75379 9.78427L3.78625 9.77616L3.82683 9.76806L3.86741 9.75995L3.87065 9.75509L3.87552 9.75185L3.88041 9.74861L3.88364 9.74374L3.85118 9.73564L3.81871 9.72754L3.78625 9.71943L3.75379 9.71133L3.72133 9.70322C3.69969 9.69783 3.66183 9.68702 3.60771 9.67081C3.55362 9.6546 3.40754 9.59516 3.16948 9.49251C2.93144 9.38987 2.74207 9.28991 2.6014 9.19266C2.46038 9.09513 2.32592 8.98846 2.19888 8.87335C2.07228 8.75665 1.93324 8.60645 1.78174 8.42276C1.63026 8.23907 1.49501 8.02565 1.37597 7.78253C1.25695 7.5394 1.16768 7.30709 1.10816 7.08557C1.04888 6.86535 1.00978 6.64021 0.991318 6.41292L0.962086 6.07254L0.978317 6.07578L0.994548 6.08065L1.01078 6.08875L1.02701 6.09685L1.04324 6.10496L1.05947 6.11306L1.31105 6.22652C1.47878 6.30217 1.68707 6.367 1.93594 6.42102C2.18482 6.47504 2.33359 6.50477 2.38228 6.51017L2.45532 6.51827H2.6014L2.59817 6.51341L2.59329 6.51017L2.58842 6.50693L2.58517 6.50206L2.58194 6.4972L2.57705 6.49396L2.57219 6.49072L2.56894 6.48586L2.55271 6.47775L2.53648 6.46965L2.53325 6.46478L2.52836 6.46154L2.52349 6.4583L2.52025 6.45344L2.50402 6.44533L2.48779 6.43723L2.48456 6.43237C2.48131 6.4302 2.43478 6.39562 2.34495 6.32863C2.25622 6.26056 2.16317 6.1725 2.06578 6.06444C1.9684 5.95638 1.87101 5.84292 1.77363 5.72406C1.67606 5.60493 1.58917 5.47748 1.51393 5.34316C1.4382 5.2081 1.35812 5.03627 1.27372 4.82773C1.19041 4.62027 1.12711 4.41118 1.08382 4.20047C1.04055 3.98976 1.0162 3.78176 1.01078 3.57645C1.00537 3.37113 1.01078 3.19555 1.02701 3.04967C1.04324 2.9038 1.0757 2.73901 1.12439 2.55532C1.17309 2.37163 1.24343 2.17713 1.3354 1.97181L1.47336 1.66385L1.48147 1.63954L1.48959 1.61523L1.49447 1.61199L1.4977 1.60712L1.50095 1.60226L1.50582 1.59902L1.5107 1.60226L1.51393 1.60712L1.51718 1.61199L1.52205 1.61523L1.52694 1.61847L1.53017 1.62333L1.53341 1.6282L1.53828 1.63144L1.5464 1.64765L1.55451 1.66385L1.5594 1.6671L1.56263 1.67196L1.78174 1.91508C1.92782 2.07717 2.10096 2.25817 2.30113 2.45807C2.50132 2.65796 2.61223 2.7617 2.63386 2.76927C2.65551 2.77791 2.68255 2.80275 2.71502 2.84383C2.74748 2.88381 2.85569 2.97944 3.03963 3.13071C3.22359 3.28199 3.46435 3.45759 3.76191 3.65749C4.05948 3.85739 4.3895 4.05459 4.75199 4.24909C5.11449 4.4436 5.50403 4.61918 5.92061 4.77587C6.3372 4.93255 6.62936 5.0352 6.79707 5.08383C6.9648 5.13245 7.25154 5.19458 7.65731 5.27022C8.06308 5.34587 8.36877 5.39449 8.57435 5.4161C8.77995 5.43771 8.92062 5.45014 8.99635 5.45338L9.10997 5.45662L9.10674 5.43231L9.10185 5.408L9.06939 5.20539C9.04775 5.07033 9.03693 4.88122 9.03693 4.6381C9.03693 4.39497 9.05587 4.17076 9.09374 3.96545C9.13162 3.76014 9.18843 3.55213 9.26416 3.34142C9.33991 3.13071 9.41404 2.9616 9.48652 2.8341C9.56011 2.70767 9.65641 2.56342 9.77543 2.40134C9.89447 2.23925 10.0487 2.07177 10.238 1.89888C10.4274 1.72598 10.6438 1.572 10.8872 1.43694C11.1307 1.30187 11.3552 1.19921 11.5608 1.12898C11.7664 1.05875 11.9396 1.01281 12.0802 0.991205C12.2209 0.969599 12.2912 0.957167 12.2912 0.953925Z" fill="white"/>
</svg>
