<svg width="21" height="15" viewBox="0 0 21 15" fill="none" xmlns="http://www.w3.org/2000/svg">
<path d="M10.7028 14.2321L6.6406 14.1562C5.32535 14.1297 4.00683 14.1826 2.71737 13.9085C0.755808 13.499 0.616843 11.4911 0.471432 9.80682C0.27107 7.43897 0.348636 5.02816 0.726745 2.68008C0.9402 1.36257 1.78023 0.576395 3.07931 0.490845C7.46466 0.18037 11.8792 0.217165 16.2548 0.362012C16.7169 0.375291 17.1822 0.447867 17.6379 0.530478C19.8872 0.933396 19.9421 3.20879 20.0879 5.12425C20.2333 7.05947 20.1719 9.00463 19.894 10.9267C19.671 12.5181 19.2444 13.8526 17.444 13.9815C15.1882 14.1499 12.9842 14.2855 10.7221 14.2424C10.7222 14.2321 10.7092 14.2321 10.7028 14.2321ZM8.31462 10.2031C10.0145 9.20573 11.682 8.22494 13.3722 7.23422C11.6691 6.23681 10.0048 5.25602 8.31462 4.2653V10.2031Z" fill="white"/>
</svg>
