<svg width="19" height="19" viewBox="0 0 19 19" fill="none" xmlns="http://www.w3.org/2000/svg">
<path fill-rule="evenodd" clip-rule="evenodd" d="M0.26416 9.25244C0.26416 5.6573 0.26416 3.85973 1.12085 2.56499C1.50341 1.98683 1.99855 1.49169 2.57671 1.10913C3.87145 0.252441 5.66902 0.252441 9.26416 0.252441C12.8593 0.252441 14.6569 0.252441 15.9516 1.10913C16.5298 1.49169 17.0249 1.98683 17.4075 2.56499C18.2642 3.85973 18.2642 5.6573 18.2642 9.25244C18.2642 12.8476 18.2642 14.6452 17.4075 15.9399C17.0249 16.5181 16.5298 17.0132 15.9516 17.3958C14.6569 18.2524 12.8593 18.2524 9.26416 18.2524C5.66902 18.2524 3.87145 18.2524 2.57671 17.3958C1.99855 17.0132 1.50341 16.5181 1.12085 15.9399C0.26416 14.6452 0.26416 12.8476 0.26416 9.25244ZM13.9234 9.25267C13.9234 11.826 11.8373 13.9121 9.264 13.9121C6.69068 13.9121 4.60459 11.826 4.60459 9.25267C4.60459 6.67935 6.69068 4.59326 9.264 4.59326C11.8373 4.59326 13.9234 6.67935 13.9234 9.25267ZM9.264 12.3357C10.9667 12.3357 12.347 10.9554 12.347 9.25267C12.347 7.54997 10.9667 6.16967 9.264 6.16967C7.5613 6.16967 6.181 7.54997 6.181 9.25267C6.181 10.9554 7.5613 12.3357 9.264 12.3357ZM14.1074 5.45399C14.7121 5.45399 15.2023 4.96382 15.2023 4.35917C15.2023 3.75451 14.7121 3.26434 14.1074 3.26434C13.5028 3.26434 13.0126 3.75451 13.0126 4.35917C13.0126 4.96382 13.5028 5.45399 14.1074 5.45399Z" fill="white"/>
</svg>
